Coordinates
version=1
nRows=12
nColumns=24
inDegrees=yes

Units are S.I. units (second, meters, Newtons, ...)
Angles are in degrees.

endheader
time	pelvis_tilt	pelvis_list	pelvis_rotation	pelvis_tx	pelvis_ty	pelvis_tz	hip_flexion_r	hip_adduction_r	hip_rotation_r	knee_angle_r	ankle_angle_r	subtalar_angle_r	mtp_angle_r	hip_flexion_l	hip_adduction_l	hip_rotation_l	knee_angle_l	ankle_angle_l	subtalar_angle_l	mtp_angle_l	lumbar_extension	lumbar_bending	lumbar_rotation
      3.93500000	     15.27190824	     -2.49078966	     -2.78965264	     -0.27712472	      0.95979474	     -0.00126685	      3.94324106	     -2.91773663	     -8.61423964	    -23.92530276	     21.51337341	     11.24307103	     23.50055087	    -26.11004645	      0.65961641	     -7.40343293	      3.64762313	     11.98320765	     12.34816464	      9.39506631	    -27.32079970	      0.76421170	      2.54678810
      3.94000000	     15.36469627	     -2.53547477	     -2.76299847	     -0.27291576	      0.95951475	     -0.00066991	      3.65898504	     -2.70017636	     -8.34526645	    -21.72571828	     21.15398835	     11.18622397	     24.23480765	    -26.51002089	      0.59000388	     -7.68037786	      3.66197259	     12.19734914	     12.81438100	      9.40113669	    -27.42812263	      0.80408811	      2.60055990
      3.94500000	     15.45730498	     -2.50674578	     -2.62410625	     -0.26869010	      0.95920324	     -0.00030109	      3.33948999	     -2.58175885	     -8.20935974	    -19.52162244	     20.83725581	     11.11852872	     24.49811173	    -26.91035190	      0.54536993	     -7.63853526	      3.71192486	     12.33051720	     12.94186013	      9.39541889	    -27.52854914	      0.82621197	      2.47960008
      3.95000000	     15.55579404	     -2.49417487	     -2.54623639	     -0.26440009	      0.95886009	      0.00020670	      2.99171532	     -2.43809818	     -7.97076899	    -17.30197572	     20.46153008	     11.07087618	     24.81798203	    -27.32215671	      0.51024283	     -7.78048157	      3.74851057	     12.50101755	     13.26102589	      9.40283731	    -27.62819050	      0.83752668	      2.45235991
      3.95500000	     15.61489602	     -2.45099115	     -2.50440941	     -0.26011128	      0.95843909	      0.00079902	      2.67359524	     -2.31968309	     -7.64600070	    -15.05950061	     19.73400149	     10.76172917	     28.32372606	    -27.66820899	      0.51500707	     -8.00156000	      3.73237096	     12.72345183	     13.68873908	      9.06700911	    -27.68153706	      0.80374782	      2.45632348
      3.96000000	     15.70310059	     -2.37458070	     -2.44653060	     -0.25575026	      0.95799618	      0.00133802	      2.31618750	     -2.25727083	     -7.36162487	    -12.90611234	     19.31671769	     10.70845174	     28.39542465	    -28.06293906	      0.55032684	     -8.16545541	      3.75374976	     12.87951788	     14.03310191	      9.07672695	    -27.75523176	      0.74849952	      2.42638408
      3.96500000	     15.77960373	     -2.27297061	     -2.35498593	     -0.25134645	      0.95749109	      0.00181146	      1.96153197	     -2.23418480	     -7.14015952	    -10.81425921	     18.89448608	     10.66878933	     28.48427498	    -28.44574653	      0.59353304	     -8.23749688	      3.78354533	     13.03016722	     14.29402952	      9.09139043	    -27.80859105	      0.68915623	      2.35417344
      3.97000000	     15.85496155	     -2.14472668	     -2.29809102	     -0.24693757	      0.95694580	      0.00235812	      1.61652612	     -2.24248732	     -6.86555018	     -8.80433739	     18.42704723	     10.56521606	     28.65995128	    -28.81691754	      0.67631027	     -8.38524422	      3.78770463	     13.18409594	     14.64543209	      9.11089746	    -27.85876814	      0.58896537	      2.31268140
      3.97500000	     15.91441567	     -1.98488333	     -2.23860523	     -0.24252465	      0.95634152	      0.00289339	      1.31114807	     -2.29630092	     -6.63068111	     -6.92500593	     17.95486682	     10.45996283	     28.90800789	    -29.15952813	      0.78554326	     -8.50874549	      3.77209764	     13.34466253	     14.98514129	      9.13051645	    -27.88801669	      0.46332690	      2.25095138
      3.98000000	     15.93902219	     -1.79052529	     -2.21195157	     -0.23815900	      0.95565563	      0.00349949	      1.07062483	     -2.38739139	     -6.34648283	     -5.14615765	     17.25658909	     10.09101430	     31.95300545	    -29.44246824	      0.93634373	     -8.65299059	      3.71647010	     13.52502450	     15.35079747	      9.00005747	    -27.88189538	      0.29011921	      2.22088331
      3.98500000	     15.99095806	     -1.59291062	     -2.12459573	     -0.23372940	      0.95498898	      0.00398282	      0.83001621	     -2.50245848	     -6.27674835	     -3.58027519	     16.87803399	     10.11810839	     31.95767203	    -29.76485748	      1.06474918	     -8.68999535	      3.68477700	     13.67213676	     15.60509183	      9.03247469	    -27.89817755	      0.14825844	      2.11980920
      3.99000000	     16.03816363	     -1.38119414	     -2.05186791	     -0.22933066	      0.95430283	      0.00451001	      0.62704565	     -2.63297368	     -6.20936140	     -2.16940757	     16.50617630	     10.08990272	     32.02431197	    -30.06372273	      1.20748094	     -8.74805566	      3.61690707	     13.82943876	     15.89575728	      9.07663230	    -27.91207188	     -0.01200863	      2.03141389
